# xmcd
#
# Track frame offsets: 
#        150
#        3596
#        18860
#        32806
#        47428
#        65648
#        75696
#        113156
#        128670
#        143596
#        149617
#        159546
#        171702
#
# Disc length: 4395 seconds
#
# Revision: 1
# Processed by: cddbd v1.5.2PL0 Copyright (c) Steve Scherf et al.
# Submitted via: ExactAudioCopy v1.0b1
#
DISCID=af11290d
DTITLE=The Blues Brothers Revival Band - We Play Both ... (Live in Düs
DTITLE=seldorf, Köln and Krefeld) - CD 2
DYEAR=1998
DGENRE=Blues
TTITLE0=The Rüdiger Paul Confusion
TTITLE1=Fom The Bottom (Unplugged Version)
TTITLE2=Do You Love Me - Mother Popcorn (Unplugged Version)
TTITLE3=I'm A Kingbee (Unplugged Version)
TTITLE4=Going Back To Miami
TTITLE5=I Feel Good
TTITLE6=Honky Tonk Women
TTITLE7=Theme From Rawhide (Hip Hop Session)
TTITLE8=Minnie Was A Moocher And How About You?
TTITLE9=Everybody Needs Somebody To Love (Rap Part)
TTITLE10=Listen To This
TTITLE11=What The Heck?
TTITLE12=DATA
EXTD=Blues Brothers Revival
EXTT0=
EXTT1=
EXTT2=
EXTT3=
EXTT4=
EXTT5=
EXTT6=
EXTT7=
EXTT8=
EXTT9=
EXTT10=
EXTT11=
EXTT12=
PLAYORDER=
